<svg width="97" height="24" viewBox="0 0 97 24" fill="none" xmlns="http://www.w3.org/2000/svg">
  <path d="M1.91072 6.27356C2.29512 6.45807 2.69269 6.61551 3.10047 6.74415C3.97512 7.02007 4.09618 6.90406 3.71787 6.12675C3.55787 5.79801 3.37954 5.48201 3.18452 5.17971C2.80341 4.58896 2.54656 4.37179 1.93888 4.88315C1.81795 4.98492 1.70486 5.0948 1.60022 5.21175C1.23324 5.62188 1.23787 5.95059 1.91072 6.27356Z" fill="#FF5B00"/>
<path d="M10.6039 22.9591C10.4535 22.5306 10.2726 22.1126 10.0622 21.7086C9.61092 20.8422 9.43172 20.8387 9.12874 21.7101C9.0006 22.0786 8.89596 22.4513 8.81428 22.8262C8.65467 23.5589 8.68411 23.9161 9.52995 23.9874C9.69828 24.0016 9.86683 24.0037 10.0344 23.9942C10.6219 23.9608 10.8673 23.7092 10.6039 22.9591Z" fill="#4D40CA"/>
<path d="M22.4945 16.6434C22.1521 16.2437 21.8378 15.8197 21.5547 15.3742C20.9472 14.4188 21.047 14.2371 22.094 14.4393C22.5369 14.5248 22.9703 14.6362 23.3928 14.772C24.2184 15.0374 24.559 15.2743 24.1429 16.1637C24.0602 16.3407 23.9652 16.5109 23.8591 16.6733C23.487 17.2429 23.0937 17.3429 22.4945 16.6434Z" fill="#00CBD0"/>
<path d="M16.8307 1.49101C16.5278 1.7489 16.2064 1.98564 15.8688 2.19896C15.1446 2.65652 15.0069 2.5814 15.1601 1.79266C15.2249 1.45909 15.3094 1.13255 15.4123 0.814326C15.6135 0.192436 15.793 -0.0641828 16.4671 0.249239C16.6013 0.311611 16.7303 0.383156 16.8534 0.463071C17.2851 0.743329 17.3609 1.0396 16.8307 1.49101Z" fill="#FFC200"/>
<path d="M4.06675 15.9473C0.70023 17.953 -0.275622 15.4235 0.0634284 12.109C0.594273 6.91958 4.06675 6.83044 5.69794 10.5381C6.68376 12.7789 6.30787 14.6122 4.06675 15.9473Z" fill="#00CBD0"/>
<path d="M7.98616 19.5467C7.98616 20.1088 7.96306 20.6656 7.91778 21.216C7.82488 22.345 7.09158 23.2873 5.60063 22.345C4.98964 21.9589 4.41472 21.5208 3.88207 21.0371C2.64854 19.917 2.3341 18.8313 3.88207 17.4773C4.27288 17.1355 4.67705 16.8086 5.0937 16.4974C7.03194 15.0499 7.783 16.0294 7.93169 18.0563C7.96779 18.5484 7.98616 19.0454 7.98616 19.5467Z" fill="#FF5B00"/>
<path d="M19.2393 18.4492C18.0367 17.4303 16.7607 16.4948 15.4202 15.6519C12.545 13.844 11.9982 14.1409 12.6066 17.2573C12.8639 18.5754 13.1994 19.8656 13.608 21.123C14.4066 23.5802 15.1195 24.5941 17.7958 23.3557C18.3284 23.1093 18.8407 22.8266 19.3295 22.5108C21.0436 21.4035 21.3443 20.2328 19.2393 18.4492Z" fill="#FFC200"/>
<path d="M17.8466 5.75402C17.4789 6.23482 17.1249 6.72649 16.785 7.22845C14.7711 10.2026 14.9705 10.3136 17.8466 11.5692C18.8828 12.0215 19.9481 12.4201 21.0388 12.7614C25.0274 14.0094 25.6374 12.6158 24.4753 9.15655C24.1439 8.17023 23.6852 7.24197 23.1186 6.3911C21.3536 3.74085 19.9064 3.06034 17.8466 5.75402Z" fill="#FF5B00"/>
<path d="M11.5583 0.0309076C10.5583 0.127356 9.59412 0.345792 8.68086 0.671105C6.19247 1.5575 6.56143 2.59962 7.93235 4.59C8.21535 5.00087 8.50772 5.40482 8.80916 5.80154C10.4065 7.90385 10.828 8.36885 12.1241 5.38793C12.547 4.41529 12.9229 3.41759 13.2488 2.39769C13.8006 0.671105 13.7156 -0.177151 11.5583 0.0309076Z" fill="#4D40CA"/>
<path d="M82.2756 8.406L78.5265 12.5202L78.5256 4.40153C78.5256 4.12133 78.2448 3.92727 77.9821 4.02611L76.0563 4.74884C75.899 4.80778 75.7954 4.9574 75.7954 5.12426V18.6357C75.7954 18.8579 75.9763 19.0374 76.198 19.0374H78.1239C78.3466 19.0374 78.5265 18.857 78.5265 18.6357V14.3365L82.5255 18.8996C82.6019 18.9866 82.7118 19.0365 82.8282 19.0365H85.3457C85.6929 19.0365 85.8765 18.6275 85.6465 18.3691L81.1886 13.3608L85.2939 8.94917C85.5329 8.69255 85.3502 8.27451 84.9994 8.27451H82.5728C82.4601 8.27451 82.3519 8.32257 82.2756 8.406Z" fill="#FF5B00"/>
<path d="M68.1251 19.39C65.0006 19.39 62.46 16.7493 62.46 13.5025C62.46 10.4315 64.9102 8.02603 68.0374 8.02603C71.3199 8.02603 73.7025 10.4151 73.7025 13.7085C73.7025 17.0018 71.3574 19.39 68.1251 19.39ZM68.2101 16.8478C69.839 16.8478 71.0212 15.5625 71.0212 13.7933C71.0212 11.9119 69.8646 10.5984 68.2101 10.5984C66.4889 10.5984 65.2875 11.8663 65.2875 13.682C65.2875 15.4869 66.5446 16.8478 68.2101 16.8478Z" fill="#FF5B00"/>
<path d="M55.2397 19.39C52.1162 19.39 49.5746 16.7493 49.5746 13.5025C49.5746 10.4315 52.0248 8.02603 55.152 8.02603C58.4354 8.02603 60.8181 10.4151 60.8181 13.7085C60.8181 17.0018 58.472 19.39 55.2397 19.39ZM55.3247 16.8478C56.9536 16.8478 58.1358 15.5625 58.1358 13.7933C58.1358 11.9119 56.9792 10.5984 55.3247 10.5984C53.6035 10.5984 52.4021 11.8663 52.4021 13.682C52.4021 15.516 53.6309 16.8478 55.3247 16.8478Z" fill="#FF5B00"/>
<path d="M44.7563 18.7109L44.7719 5.11642C44.7719 4.9487 44.876 4.7983 45.0341 4.73905L46.9288 4.02898C47.1938 3.92962 47.4761 4.1256 47.4752 4.40726L47.4542 18.7118C47.4542 18.9342 47.2733 19.1147 47.0494 19.1147H45.1601C44.9372 19.1147 44.7563 18.9333 44.7563 18.7109Z" fill="#FF5B00"/>
<path d="M39.4801 8.406L35.7311 12.5202L35.7302 4.40153C35.7302 4.12133 35.4494 3.92727 35.1867 4.02611L33.2608 4.74884C33.1036 4.80778 33 4.9574 33 5.12426V18.6357C33 18.8579 33.1809 19.0374 33.4026 19.0374H35.3285C35.5512 19.0374 35.7311 18.857 35.7311 18.6357V14.3365L39.7301 18.8996C39.8064 18.9866 39.9164 19.0365 40.0327 19.0365H42.5503C42.8975 19.0365 43.081 18.6275 42.8511 18.3691L38.3932 13.3608L42.4985 8.94917C42.7375 8.69255 42.5548 8.27451 42.204 8.27451H39.7773C39.6646 8.27451 39.5565 8.32257 39.4801 8.406Z" fill="#FF5B00"/>
</svg>
